<svg width="16" height="16" viewBox="0 0 16 16" fill="none" xmlns="http://www.w3.org/2000/svg">
<path fill-rule="evenodd" clip-rule="evenodd" d="M11.328 0.5C11.8191 0.5 12.2898 0.696065 12.6336 1.04257L14.9593 3.36824C15.3055 3.7145 15.5 4.18413 15.5 4.67381C15.5 5.16349 15.3055 5.63312 14.9593 5.97938L6.46813 14.4678C5.94427 15.0721 5.20167 15.4434 4.35095 15.5017H0.5V14.7517L0.502436 11.5905C0.566329 10.7996 0.934 10.0642 1.49487 9.57006L10.0215 1.04347C10.3673 0.695622 10.8375 0.5 11.328 0.5ZM4.29799 14.0036C4.69866 13.9753 5.07162 13.7888 5.3711 13.4462L11.0425 7.77478L8.22675 4.95889L2.52208 10.6622C2.21821 10.9309 2.03023 11.3069 2 11.6509V14.0022L4.29799 14.0036ZM9.28754 3.89836L12.1032 6.71412L13.8986 4.91872C13.9635 4.85376 14 4.76567 14 4.67381C14 4.58195 13.9635 4.49386 13.8986 4.4289L11.5708 2.10114C11.5066 2.03641 11.4192 2 11.328 2C11.2368 2 11.1494 2.03641 11.0852 2.10114L9.28754 3.89836Z" fill="#3F448E"/>
</svg>
