<svg width="24" height="24" viewBox="0 0 24 24" fill="none" xmlns="http://www.w3.org/2000/svg">
<path d="M24 12C24 18.6274 18.6274 24 12 24C5.37258 24 0 18.6274 0 12C0 5.37258 5.37258 0 12 0C18.6274 0 24 5.37258 24 12Z" fill="#E9573F"/>
<path d="M17.025 15.975C17.325 16.275 17.325 16.725 17.025 17.025C16.875 17.175 16.725 17.25 16.5 17.25C16.275 17.25 16.125 17.175 15.975 17.025L12 13.05L8.025 17.025C7.875 17.175 7.725 17.25 7.5 17.25C7.275 17.25 7.125 17.175 6.975 17.025C6.675 16.725 6.675 16.275 6.975 15.975L10.95 12L6.975 8.025C6.675 7.725 6.675 7.275 6.975 6.975C7.275 6.675 7.725 6.675 8.025 6.975L12 10.95L15.975 6.975C16.275 6.675 16.725 6.675 17.025 6.975C17.325 7.275 17.325 7.725 17.025 8.025L13.05 12L17.025 15.975Z" fill="white"/>
</svg>
