<svg width="20" height="24" viewBox="0 0 20 24" fill="none" xmlns="http://www.w3.org/2000/svg">
<path d="M16.7993 23.9991H2.3999C1.07447 23.9991 0 22.9246 0 21.5992V2.40006C0 1.07463 1.07447 0.000160713 2.3999 0.000160713H10.7995C10.8103 -0.00123358 10.8212 -0.00123358 10.8319 0.000160713H10.8391C10.8505 0.00371023 10.8621 0.00612203 10.8739 0.0073604C10.9797 0.0141439 11.0842 0.034717 11.1847 0.0685577H11.2351C11.2572 0.084068 11.2781 0.101322 11.2975 0.120155C11.4282 0.178261 11.5474 0.259571 11.6491 0.360145L18.8488 7.55983C18.9494 7.66157 19.0307 7.78069 19.0888 7.91142C19.0996 7.93782 19.108 7.96301 19.1164 7.99061L19.1284 8.02421C19.1619 8.12428 19.1816 8.22842 19.1872 8.3338C19.1882 8.34575 19.191 8.35748 19.1956 8.3686V8.3758C19.1975 8.38366 19.1987 8.3917 19.1992 8.39979V21.5992C19.1992 22.2357 18.9463 22.8461 18.4963 23.2962C18.0462 23.7463 17.4358 23.9991 16.7993 23.9991ZM13.7526 14.3995C13.1986 14.3687 12.6651 14.6135 12.3271 15.0535C11.97 15.6041 11.7992 16.2548 11.8399 16.9098V17.961C11.8056 18.6094 11.9931 19.2501 12.3715 19.7777C12.7317 20.1983 13.2668 20.4279 13.8198 20.3993C14.163 20.4028 14.5036 20.3401 14.823 20.2145H14.8326H14.8254C14.8365 20.2079 14.8481 20.2023 14.8602 20.1977H14.8662L14.8854 20.1881L14.9106 20.1761C15.1725 20.0556 15.4051 19.8795 15.5921 19.6601V17.247H13.7394V18.1374H14.5038V19.2089L14.4078 19.2809C14.2518 19.3801 14.0692 19.4291 13.8846 19.4213C13.5941 19.4442 13.3145 19.306 13.1562 19.0613C12.9852 18.6988 12.9096 18.2985 12.9366 17.8986V16.839C12.9158 16.4577 12.987 16.0771 13.1442 15.7291C13.2734 15.4989 13.5228 15.3628 13.7862 15.3787C13.9865 15.362 14.1835 15.4375 14.3214 15.5839C14.4645 15.8108 14.5394 16.074 14.5374 16.3422H15.5993C15.6015 15.8062 15.4179 15.2859 15.0797 14.8699C14.7229 14.5347 14.2409 14.3642 13.7526 14.3995ZM3.59984 18.5993C3.57409 19.0747 3.72065 19.5433 4.01263 19.9193C4.30557 20.2456 4.73028 20.422 5.16818 20.3993C5.60302 20.4097 6.01882 20.221 6.29733 19.8869C6.6035 19.5 6.7591 19.0153 6.73531 18.5226V14.4799H5.63975V18.4662C5.63975 19.0997 5.48016 19.4261 5.15978 19.4261C4.83939 19.4261 4.6882 19.1477 4.6882 18.5993H3.59984ZM7.59207 14.4847V20.3237H8.68402V18.2658H9.41239C9.89901 18.2926 10.3742 18.1121 10.7203 17.769C11.0485 17.396 11.2174 16.9092 11.1907 16.413C11.212 15.9037 11.0406 15.405 10.7107 15.0163C10.3859 14.6561 9.9174 14.4595 9.43279 14.4799L7.59207 14.4847ZM10.7995 2.40006V8.39979H16.7993L10.7995 2.40006ZM9.43399 17.2794H8.68402V15.4615H9.44599C9.63754 15.4623 9.81485 15.5628 9.91397 15.7267C10.0405 15.9351 10.1016 16.1767 10.0892 16.4202C10.1041 16.6471 10.0443 16.8726 9.91877 17.0622C9.80182 17.2088 9.6212 17.2897 9.43399 17.2794Z" fill="#3F448E"/>
</svg>
