<svg width="18" height="18" viewBox="0 0 18 18" fill="none" xmlns="http://www.w3.org/2000/svg">
<path fill-rule="evenodd" clip-rule="evenodd" d="M12.9599 11.8939L16.3868 15.3208C16.6914 15.6254 16.6914 16.0823 16.3868 16.387C16.2345 16.5393 16.0061 16.6154 15.8538 16.6154C15.7014 16.6154 15.473 16.5393 15.3207 16.387L11.8938 12.96C10.7514 13.7977 9.38067 14.3308 7.8576 14.3308C4.27837 14.3308 1.38452 11.437 1.38452 7.85772C1.38452 4.27849 4.27837 1.38464 7.8576 1.38464C11.4368 1.38464 14.3307 4.27849 14.3307 7.85772C14.3307 9.3808 13.7976 10.8277 12.9599 11.8939ZM7.85771 2.90759C5.11618 2.90759 2.90771 5.11605 2.90771 7.85759C2.90771 10.5991 5.11618 12.8076 7.85771 12.8076C9.22848 12.8076 10.4469 12.2745 11.3608 11.3607C12.2746 10.4468 12.8077 9.22836 12.8077 7.85759C12.8077 5.11605 10.5993 2.90759 7.85771 2.90759Z" fill="white"/>
<mask id="mask0_1016_679" style="mask-type:alpha" maskUnits="userSpaceOnUse" x="1" y="1" width="16" height="16">
<path fill-rule="evenodd" clip-rule="evenodd" d="M12.9599 11.8939L16.3868 15.3208C16.6914 15.6254 16.6914 16.0823 16.3868 16.387C16.2345 16.5393 16.0061 16.6154 15.8538 16.6154C15.7014 16.6154 15.473 16.5393 15.3207 16.387L11.8938 12.96C10.7514 13.7977 9.38067 14.3308 7.8576 14.3308C4.27837 14.3308 1.38452 11.437 1.38452 7.85772C1.38452 4.27849 4.27837 1.38464 7.8576 1.38464C11.4368 1.38464 14.3307 4.27849 14.3307 7.85772C14.3307 9.3808 13.7976 10.8277 12.9599 11.8939ZM7.85771 2.90759C5.11618 2.90759 2.90771 5.11605 2.90771 7.85759C2.90771 10.5991 5.11618 12.8076 7.85771 12.8076C9.22848 12.8076 10.4469 12.2745 11.3608 11.3607C12.2746 10.4468 12.8077 9.22836 12.8077 7.85759C12.8077 5.11605 10.5993 2.90759 7.85771 2.90759Z" fill="white"/>
</mask>
<g mask="url(#mask0_1016_679)">
<rect x="-0.138672" y="-0.138306" width="18.2769" height="18.2769" fill="white"/>
</g>
</svg>
