<svg width="42" height="42" viewBox="0 0 42 42" fill="none" xmlns="http://www.w3.org/2000/svg">
<path d="M21.0021 39.6478L29.3224 37.5467C34.0716 33.6031 37.0966 27.6549 37.0966 20.9994C37.0966 10.7337 29.9015 2.14856 20.2792 0.0115662C9.01499 0.391453 0 9.64261 0 20.9993C0 26.8327 2.37891 32.1101 6.21895 35.9156L21.0021 39.6478Z" fill="#CBE2FF"/>
<path d="M36.6609 21C36.6609 27.8837 33.3484 33.993 28.231 37.8229L35.7804 35.9164C39.6207 32.111 42 26.8336 42 21C42 9.40204 32.598 3.05176e-05 21 3.05176e-05C20.0957 3.05176e-05 19.2046 0.0572883 18.3304 0.168195C28.6679 1.47971 36.6609 10.3064 36.6609 21Z" fill="#BED8FB"/>
<path d="M26.219 7.95306C26.219 6.8805 25.3495 6.01105 24.277 6.01105H17.5847C15.1163 6.01105 13.1152 8.01212 13.1152 10.4805V15.4428H28.8824V10.5509C28.8824 9.47834 28.0129 8.60889 26.9404 8.60889H26.8749C26.5127 8.60889 26.219 8.3153 26.219 7.95306Z" fill="#3C51AE"/>
<path d="M26.9406 8.60892H26.8751C26.5129 8.60892 26.2192 8.31525 26.2192 7.953C26.2192 6.88044 25.3498 6.01099 24.2772 6.01099H23.5434V15.4428H28.8825V10.5508C28.8826 9.47845 28.0131 8.60892 26.9406 8.60892Z" fill="#2D429F"/>
<path d="M34.8669 30.5447C34.3534 30.0376 33.7183 29.6454 32.9974 29.4172L27.2641 27.602L21.0012 27.3819L14.7357 27.602L9.00241 29.4172C7.06287 30.0313 5.74471 31.8312 5.74471 33.8657V35.432C9.4188 39.3144 14.559 41.795 20.2792 41.9879C26.6882 40.5644 32.0203 36.2805 34.8669 30.5447Z" fill="#5B70CD"/>
<path d="M36.2547 35.432V33.8656C36.2547 32.4271 35.5952 31.1065 34.5234 30.2388C31.4792 36.4425 25.4654 40.9248 18.3349 41.8312C19.1956 41.9402 20.0721 41.9984 20.962 41.9999C21.817 41.9986 22.6607 41.9491 23.4906 41.8538C28.497 41.2622 32.9639 38.9093 36.2547 35.432Z" fill="#4C61BE"/>
<path d="M21.4755 41.6856C22.746 39.1631 26.0546 32.0005 25.1112 27.5263L21.0013 25.9268L16.8876 27.5264C15.915 32.1386 19.4609 39.6077 20.6349 41.9057C20.9172 41.8379 21.1975 41.7645 21.4755 41.6856Z" fill="#E4F6FF"/>
<path d="M23.6408 39.6858L21.9744 33.1301H20.0247L18.3624 39.6679L20.418 41.9564C20.9398 41.8368 21.4544 41.6983 21.961 41.5415L23.6408 39.6858Z" fill="#D5B9A7"/>
<path d="M20.4503 41.9921C20.6205 41.9966 20.791 41.9996 20.9622 41.9999C21.1603 41.9996 21.3578 41.9962 21.5547 41.9907L22.6134 40.821C21.7801 41.1133 20.9228 41.3547 20.0451 41.5411L20.4503 41.9921Z" fill="#C19E7A"/>
<path d="M24.5083 26.9212V23.2244H17.4881V26.9212C17.4881 28.8598 20.9982 30.9773 20.9982 30.9773C20.9982 30.9773 24.5083 28.8598 24.5083 26.9212Z" fill="#FFDDCE"/>
<path d="M28.8824 14.7917H27.5404C26.7941 14.7917 26.1891 14.1867 26.1891 13.4404V12.7009C26.1891 11.7287 25.238 11.0414 24.315 11.3464C22.1622 12.058 19.8378 12.0581 17.6849 11.3469L17.6824 11.3461C16.7594 11.0412 15.8084 11.7285 15.8084 12.7006V13.4405C15.8084 14.1868 15.2034 14.7918 14.4571 14.7918H13.1152V17.0015C13.1152 17.5661 13.573 18.0239 14.1377 18.0239C14.3158 18.0239 14.4608 18.1635 14.472 18.3413C14.6876 21.7594 17.5265 24.4653 20.9988 24.4653C24.4712 24.4653 27.3101 21.7594 27.5257 18.3413C27.5369 18.1636 27.6818 18.0239 27.86 18.0239C28.4246 18.0239 28.8825 17.5662 28.8825 17.0015V14.7917H28.8824Z" fill="#FFDDCE"/>
<path d="M27.54 14.7917C26.7937 14.7917 26.1887 14.1867 26.1887 13.4404V12.7008C26.1887 11.7287 25.2375 11.0414 24.3145 11.3464C24.0596 11.4307 23.8021 11.5042 23.5429 11.5685V18.867C23.5069 21.2416 22.2057 23.3083 20.2842 24.4253C20.5189 24.4508 20.7569 24.4651 20.9983 24.4651C24.4707 24.4651 27.3096 21.7592 27.5252 18.3412C27.5364 18.1634 27.6813 18.0238 27.8595 18.0238C28.4241 18.0238 28.882 17.566 28.882 17.0013V14.7916H27.54V14.7917Z" fill="#FFCBBE"/>
<path d="M17.488 25.9268L14.7352 28.1635L17.6221 31.733C17.9732 32.0749 18.526 32.0959 18.9021 31.7817L21.0731 29.9682L17.488 25.9268Z" fill="#F4FBFF"/>
<path d="M24.5097 25.9268L21.0732 29.9682L23.1137 31.7129C23.4875 32.0325 24.0428 32.0164 24.3975 31.6757L27.2637 28.1635L24.5097 25.9268Z" fill="#F4FBFF"/>
<path d="M17.4884 25.9268L13.4478 27.9119C13.1402 28.063 13.0167 28.4372 13.1738 28.7418L13.9654 30.2766C14.1705 30.6743 14.0948 31.1589 13.7782 31.4751C13.6152 31.6377 13.4387 31.8139 13.2857 31.9667C13.0119 32.24 12.9135 32.6438 13.0341 33.0115C13.9898 35.925 18.5896 40.3802 20.3304 41.9921C20.4475 41.9952 20.5648 41.9974 20.6823 41.9987C19.42 39.5432 14.9466 30.2145 17.4884 25.9268Z" fill="#3C51AE"/>
<path d="M28.2203 31.475C27.9036 31.1588 27.8279 30.6742 28.0331 30.2765L28.8247 28.7417C28.9818 28.4371 28.8582 28.0629 28.5506 27.9118L24.5101 25.9268C27.0513 30.2133 22.581 39.5382 21.3172 41.9967C21.436 41.9947 21.5545 41.9917 21.6728 41.9878C23.4172 40.3722 28.0095 35.9224 28.9644 33.0116C29.085 32.6439 28.9866 32.2401 28.7128 31.9668C28.5598 31.8139 28.3833 31.6376 28.2203 31.475Z" fill="#3C51AE"/>
<path d="M21.0737 29.9681L18.936 31.7535L20.0252 33.13H21.9748L23.0641 31.6723L21.0737 29.9681Z" fill="#C19E7A"/>
</svg>
